<svg width="888" height="858" viewBox="0 0 888 858" fill="none" xmlns="http://www.w3.org/2000/svg">
<path d="M359.9 719.974L367.335 719.936C372.852 732.544 378.566 748.053 383.698 761.024L375.77 761.068C373.799 755.69 374.547 752.215 368.58 751.803L354.784 751.877L351.203 761.015L343.398 761.005L359.9 719.974Z" fill="#2F5F19"/>
<path d="M363.167 729.568C365.086 731.348 368.439 741.466 369.44 744.57C368.33 745.657 367.387 745.265 365.302 745.35L357.242 745.221C359.348 740.054 361.324 734.835 363.167 729.568Z" fill="white"/>
<path d="M15.6484 830.933C23.6194 830.433 114.955 830.593 116.576 831.483L117.212 834.273C112.614 834.493 107.114 834.503 102.5 834.373C74.4744 833.553 45.2674 835.563 17.3484 834.273C15.8674 833.233 16.2744 833.163 15.6484 830.933Z" fill="#2F5F19"/>
<path d="M754.52 830.934C776.226 829.804 829.758 831.274 853.788 831.134C854.358 831.134 854.728 833.374 854.978 834.294C850.278 834.534 844.988 834.464 840.228 834.384C812.308 833.934 783.924 835.134 756.044 834.264C754.9 833.234 755.054 832.664 754.52 830.934Z" fill="#2F5F19"/>
<path d="M422.904 719.978C431.261 719.841 443.92 718.474 450.625 723.914C460.514 731.937 460.489 745.596 452.756 755.11C443.676 762.722 434.347 761.155 422.879 761.052L422.904 719.978Z" fill="#2F5F19"/>
<path d="M429.929 726.266C435.934 726.075 440.926 725.623 445.994 729.51C453.615 735.356 452.147 744.364 446.893 751.118C440.875 755.515 437.335 754.831 429.989 754.563C429.823 745.131 429.803 735.698 429.929 726.266Z" fill="white"/>
<path d="M631.66 719.939C636.982 719.943 648.385 719.178 652.799 720.923C664.838 725.685 663.693 739.805 651.825 744.51C655.613 749.947 659.345 755.423 663.02 760.938L654.557 761.076C652.349 757.534 645.149 743.378 640.722 744.964C638.038 748.647 638.688 756.281 638.71 761.036L631.66 761.06V719.939Z" fill="#2F5F19"/>
<path d="M638.912 726.229C646.591 725.973 658.291 725.573 652.23 737.217C647.694 739.673 644.076 739.04 638.832 738.967L638.912 726.229Z" fill="white"/>
<path d="M751.631 749.022C751.607 744.938 750.822 721.879 752.652 720.259C754.582 720.167 756.252 719.945 758.121 720.398C759.549 723.812 758.774 755.216 758.736 760.931L751.531 761.03C744.44 751.647 737.852 741.279 730.631 731.613C730.323 741.236 730.457 751.423 730.439 761.092C728.494 761.098 725.282 761.357 723.834 760.265C723.017 754.075 723.5 727.53 723.517 719.941L731.187 719.936C738.109 729.359 744.923 739.408 751.631 749.022Z" fill="#2F5F19"/>
<path d="M679.565 719.957C684.107 719.888 702.026 719.043 704.607 720.909C704.752 722.676 704.938 723.096 704.343 724.766C701.513 727.209 690.938 726.286 686.743 726.265L686.698 736.692C689.862 736.738 699.432 736.233 701.805 736.917C708.94 746.969 691.01 741.221 686.955 743.964L686.727 745.598L686.664 754.639C692.427 754.826 700.097 753.116 704.199 755.636C705.503 757.848 705.126 757.021 705.169 759.834C702.861 762.027 684.43 761.081 679.535 761.067L679.565 719.957Z" fill="#2F5F19"/>
<path d="M828.957 719.902C833.337 719.926 851.457 719.118 853.997 720.925C854.147 723.829 854.467 722.557 853.317 724.957C849.927 727.399 841.117 726.224 836.107 726.198L836.177 736.747C839.097 736.705 849.827 736.226 851.897 737.413C852.347 739.639 852.207 739.799 851.917 741.99C848.267 745.325 840.637 741.462 836.137 744.022L836.107 754.729C841.847 754.897 849.307 753.205 853.267 755.966C854.417 757.948 854.257 757.961 854.017 760.164C851.247 761.829 833.727 761.065 828.967 761.043L828.957 719.902Z" fill="#2F5F19"/>
<path d="M587.726 719.942C593.644 719.96 607.513 719.211 612.466 720.516C616.072 728.979 599.83 726.264 594.911 726.183L594.912 736.806C600.037 736.795 611.854 734.304 611.379 741.652C608.598 744.545 601.185 742.54 595.597 743.417L594.882 744.477L594.891 754.64L613.033 754.633L612.893 761.025L587.719 761.018L587.726 719.942Z" fill="#2F5F19"/>
<path d="M791.919 719.504C793.69 719.376 795.464 719.287 797.239 719.237C804.405 719.091 808.308 722.227 813.078 726.805L807.735 730.908C799.796 723.322 789.32 722.527 784.407 733.699C782.518 738.001 782.485 742.893 784.316 747.22C788.02 756.081 795.992 756.727 803.908 753.086L807.37 749.345L813.078 753.56C806.195 761.33 796.718 764.391 787.033 759.615C781.752 756.978 777.809 752.261 776.15 746.596C772.339 733.857 779.447 722.968 791.919 719.504Z" fill="#2F5F19"/>
<path d="M502.936 719.931C508.906 719.907 521.703 719.478 526.953 720.291L527.651 721.418C527.727 723.491 528.022 723.763 527.16 725.442C523.511 726.727 514.382 726.298 510.031 726.258L509.895 737.414C515.418 737.54 520.528 736.169 524.812 738.019C526.36 740.234 525.819 740.847 525.803 743.958L509.905 744.029C509.963 747.914 510.432 757.364 509.178 760.799C507.632 761.125 504.246 761.196 503.11 760.073C502.287 753.069 502.889 728.184 502.936 719.931Z" fill="#2F5F19"/>
<path d="M545.293 719.962C551.109 719.909 564.512 719.431 569.424 720.34C570.406 722.2 570.084 722.738 570.074 725.04C567.598 726.931 556.065 726.243 552.323 726.213L552.344 737.595C558.115 737.689 562.486 736.304 567.253 738.164C568.678 740.202 568.173 740.127 568.216 743.171C566.551 744.49 555.295 743.998 552.441 743.995L552.313 761.046L545.299 761.032L545.293 719.962Z" fill="#2F5F19"/>
<path d="M475.962 719.914C478.307 719.878 480.586 719.602 482.683 720.557C483.609 726.049 483.06 753.67 483.021 761.027C480.21 761.09 479.473 761.087 476.722 760.659C474.888 758.189 475.902 724.639 475.962 719.914Z" fill="#2F5F19"/>
<path d="M51.7266 720L60.9356 719.883C60.9586 726.364 61.5296 755.69 60.3746 760.381C58.4076 761.284 55.9526 761.029 53.7146 761.012L53.7116 741.313L53.7536 731.695C51.2596 736.698 43.4166 758.84 37.7516 757.529C34.0016 754.509 27.3526 737.973 24.1726 732C24.2486 737.908 24.5906 755.502 23.7836 760.382L22.5986 761.144C20.3126 761.155 20.0116 761.556 18.4276 760.518C16.2986 755.815 17.1206 727.319 17.1006 719.935L26.2016 719.921C30.3796 729.291 34.6166 738.634 38.9106 747.951L51.7266 720Z" fill="#2F5F19"/>
<path d="M210.269 719.902L217.843 719.906C224.996 729.512 232.057 739.546 239.235 749.25C239.203 745.169 238.368 721.897 240.179 720.286C242.183 720.156 243.737 719.863 245.619 720.508C247.13 724.788 246.277 754.681 246.212 761.062L238.964 761.049C231.93 752.054 224.363 740.604 217.249 731.117L217.247 761.048L210.266 761.043L210.269 719.902Z" fill="#2F5F19"/>
<path d="M92.8119 719.934L100.41 719.968C105.858 732.087 111.854 748.43 116.829 761.019L108.876 761.062C107.232 756.067 107.247 751.973 101.615 751.751L87.7409 751.782L84.1589 760.988L76.2969 761.054C80.7689 748.457 87.7039 732.582 92.8119 719.934Z" fill="#2F5F19"/>
<path d="M96.1912 729.553C98.0182 731.181 101.821 742.111 102.498 744.789C101.32 745.515 99.6392 745.304 98.0112 745.381L90.1992 745.294C92.2772 740.078 94.2742 734.831 96.1912 729.553Z" fill="white"/>
<path d="M280.542 719.544C282.369 719.348 284.204 719.226 286.041 719.179C293.399 719.019 297.498 721.683 302.474 726.464L297.185 730.829C289.918 723.887 279.709 723.181 273.763 732.064C271.394 735.561 270.592 739.887 271.55 744C274.562 756.849 291.564 758.689 297.312 748.853C297.451 746.586 297.731 747.571 296.625 745.751C295.151 744.751 288.271 745.077 285.75 744.909C285.691 743.041 285.349 741.49 286.398 740.075C290.259 737.929 299.201 739.084 304.422 739.112C304.417 743.547 304.723 747.36 303.029 751.568C298.887 761.857 286.017 763.972 276.597 759.822C271.214 757.5 267.054 753.026 265.127 747.489C260.613 734.229 268.083 723.786 280.542 719.544Z" fill="#2F5F19"/>
<path d="M132.682 719.888C135.214 719.936 137.423 719.545 139.39 720.666C140.083 725.115 139.852 733.726 139.862 738.516C145.335 732.632 150.994 725.988 156.353 719.932L165.907 719.905C160.027 725.767 153.602 733.044 147.893 739.207L157.918 750.959C160.762 754.163 163.667 757.723 166.454 761.011L157.336 761.065C154.957 758.213 144.446 745.291 142.266 743.666L141.236 744.148C138.589 750.182 140.675 757.125 139.405 760.644C137.437 761.332 134.895 761.051 132.68 761.03L132.682 719.888Z" fill="#2F5F19"/>
<path d="M182.847 719.972C185.654 719.864 186.584 719.705 189.265 720.313C190.523 722.55 189.871 756.052 189.846 760.939L182.832 761.047L182.847 719.972Z" fill="#2F5F19"/>
<path d="M303.128 823.643C309.267 824.303 316.32 828.213 315.088 835.333C310.739 840.543 300.422 835.173 297.835 839.143C300.108 845.703 306.367 843.963 310.693 840.393C312.649 841.913 312.771 841.533 313.604 843.503C310.715 848.563 302.895 849.563 298.008 846.563C295.073 844.733 292.989 841.813 292.218 838.443C290.363 830.333 295.626 825.243 303.128 823.643Z" fill="#2F5F19"/>
<path d="M302.743 827.943C305.605 828.213 309.138 829.043 309.322 832.483C307.598 834.013 307.66 833.493 304.692 833.653C301.69 833.693 300.254 834.033 298.078 832.283L298.198 831.033C299.854 829.173 300.436 829.063 302.743 827.943Z" fill="white"/>
<path d="M265.06 812.381C265.983 812.408 268.665 812.35 269.09 812.963C271.173 815.967 270.361 822.854 270.411 826.524C286.616 814.676 288.775 839.904 283.55 848.034L281.81 847.814C280.019 844.284 280.508 840.674 280.636 836.724C280.525 832.564 280.481 827.894 275.11 828.164C267.867 832.044 271.124 842.694 269.825 846.774L268.424 847.474C265.906 847.224 266.828 847.764 265.297 846.354C264.382 839.194 265.055 820.567 265.06 812.381Z" fill="#2F5F19"/>
<path d="M233.689 813.792C238.211 813.864 257.053 812.67 259.254 814.819C259.425 816.455 259.636 816.667 258.982 818.112C256.161 819.144 252.238 818.749 249.101 818.688L249.108 836.224C249.169 838.974 249.936 845.604 247.883 847.344C245.605 847.284 245.469 847.664 243.937 846.564C243.125 839.814 243.57 826.144 243.618 818.841C240.459 818.8 237.272 819.539 234.571 818.318C233.244 816.519 233.717 816.585 233.689 813.792Z" fill="#2F5F19"/>
<path d="M164.186 812.406C165.314 812.384 168.001 812.187 168.577 813.208C170.375 816.392 169.47 823.022 169.491 826.772C182.919 818.263 194.267 831.242 185.293 844.852C174.819 852.762 175.142 842.942 167.389 847.632C165.138 847.362 165.948 847.872 164.459 846.652C163.597 842.752 164.146 818.256 164.186 812.406Z" fill="#2F5F19"/>
<path d="M173.99 828.924C177.779 827.704 181.853 829.724 183.172 833.484C184.49 837.244 182.571 841.364 178.848 842.774C176.355 843.724 173.546 843.234 171.509 841.514C169.473 839.794 168.53 837.104 169.045 834.494C169.56 831.874 171.453 829.744 173.99 828.924Z" fill="white"/>
<path d="M204.135 841.313C205.851 836.573 208.194 829.373 210.615 825.193C211.942 824.253 213.147 824.513 214.834 824.563L215.216 825.163C214.556 828.933 211.875 834.633 210.29 838.373C208.836 842.003 204.29 855.433 201.768 857.143C200.024 857.383 199.262 857.613 197.543 857.153C197.205 854.933 200.136 849.633 201.265 847.243C198.303 839.733 195.102 832.133 192.043 824.643C194.056 824.503 194.338 824.493 196.335 824.723C199.549 827.003 202.368 836.873 204.135 841.313Z" fill="#2F5F19"/>
<path d="M499.343 813.777C500.488 813.751 503.694 813.58 504.11 814.143C507.678 818.97 516.997 842.704 518.126 846.724C516.877 847.994 517.611 847.534 515.761 848.014C509.573 845.964 513.206 839.984 505.736 839.494L494.644 839.604C493.657 841.994 492.607 845.424 490.71 846.944C488.621 847.454 488.372 847.264 486.282 846.934L485.895 846.174C487.101 841.434 496.925 819.546 499.343 813.777Z" fill="#2F5F19"/>
<path d="M501.429 821.35C503.388 823.003 507.512 831.923 506.473 834.503L504.511 834.713L496.5 834.493C498.204 830.203 499.813 825.693 501.429 821.35Z" fill="white"/>
<path d="M638.01 823.693C647.262 824.593 648.421 829.303 649.71 837.413C645.803 837.553 634.733 836.353 632.328 838.753L632.457 840.153C636.787 845.633 640.148 843.833 645.262 840.633L647.31 842.333C648.214 845.743 642.846 847.523 640.092 848.093C637.284 848.693 634.355 848.123 631.974 846.513C622.572 840.263 624.893 825.853 638.01 823.693Z" fill="#2F5F19"/>
<path d="M636.975 827.834C639.891 828.234 643.307 829.184 643.795 832.524C642.256 833.894 642.164 833.424 639.494 833.584C636.775 833.574 634.494 833.954 632.473 832.324L632.518 831.064C634.159 829.194 634.725 829.054 636.975 827.834Z" fill="white"/>
<path d="M567.437 812.423C578.079 812.096 569.165 820.543 573.136 826.213C584.324 819.825 588.451 826.963 587.839 837.553C587.664 840.583 588.238 844.123 587.402 847.043C585.405 847.893 584.912 847.653 583.375 846.453C582.151 843.703 582.741 838.373 582.805 834.993C582.828 830.923 580.909 827.723 576.519 827.783C570.241 831.663 574.397 842.753 570.805 847.693C569.593 847.963 567.627 847.583 567.595 846.433C567.28 835.123 567.428 823.743 567.437 812.423Z" fill="#2F5F19"/>
<path d="M704.508 824.223C708.286 823.833 714.242 823.663 716.425 827.373L716.09 828.413C712.408 829.973 709.452 828.413 704.962 829.623L704.585 830.503C706.483 833.633 716.246 835.123 718.032 839.853C719.548 843.873 713.547 846.953 710.607 848.013C709.822 848.043 709.036 848.063 708.251 848.053C705.505 848.003 701.033 846.833 699.113 844.793C699.118 842.873 698.882 843.783 700.101 842.053C704.326 840.583 707.601 845.433 711.821 841.943C711.842 837.453 689.195 833.903 704.508 824.223Z" fill="#2F5F19"/>
<path d="M549.036 824.212C553.363 823.792 557.79 823.462 561.001 826.962C561.234 829.042 561.468 828.092 560.087 829.852C556.388 831.412 549.626 826.222 547.114 830.942C544.207 836.402 547.831 846.172 555.336 842.742C557.753 841.252 558.129 840.992 560.467 842.382L560.757 843.832C557.782 850.372 546.247 849.342 542.466 842.302C540.747 839.052 540.427 835.242 541.578 831.762C542.95 827.552 545.316 826.052 549.036 824.212Z" fill="#2F5F19"/>
<path d="M662.397 824.243C666.012 823.893 674.355 824.123 674.97 828.823C673.866 829.843 672.988 829.913 671.466 830.433C668.88 829.273 666.514 827.663 663.57 828.783C655.924 831.693 660.134 847.103 668.621 842.713L670.697 841.493C672.926 841.473 671.94 841.183 673.785 842.333L674.088 843.833C669.29 854.323 649.296 844.873 655.028 831.893C657.21 826.943 657.38 826.713 662.397 824.243Z" fill="#2F5F19"/>
<path d="M683.013 818.021C685.467 817.899 686.535 817.424 688.052 819.451C687.62 822.163 687.003 822.713 689.232 824.273C692.491 824.363 692.743 824.023 694.923 826.013L694.82 826.953C693.117 828.463 690.728 828.883 688.478 829.513C687.96 832.853 687.258 840.523 689.696 842.933C693.489 843.293 693.706 842.683 695.283 846.053C693.519 847.723 690.382 848.453 687.974 848.493C680.448 845.653 684.32 832.983 682.398 829.273L679.349 828.703C678.1 827.073 678.584 827.993 678.679 825.333C680.687 823.193 680.816 825.683 682.894 823.753L683.013 818.021Z" fill="#2F5F19"/>
<path d="M610.728 817.978C613.049 818.043 613.885 817.697 615.535 818.787C615.287 821.107 615.134 821.473 615.931 823.733C617.456 825.113 618.304 824.233 621.37 824.723L622.172 825.973C621.831 828.943 618.537 828.283 616.529 830.683C614.297 833.353 614.97 840.893 617.253 842.933C621.676 843.423 621.423 842.893 622.51 846.813C606.668 854.003 612.418 834.283 610.117 829.213C608.248 829.053 608.025 829.263 606.634 828.123C606.265 826.423 606.02 826.283 606.647 824.733C608.236 824.433 608.549 824.293 610.07 823.693C611.295 821.348 610.799 821.054 610.728 817.978Z" fill="#2F5F19"/>
<path d="M536.118 823.584C537.712 825.014 537.186 824.164 537.741 826.244C536.961 827.644 537.204 827.714 535.188 828.384C523.783 832.154 531.155 838.884 528.337 846.244C526.45 847.884 526.706 847.324 523.462 847.424C523.477 843.004 523.271 827.764 524.095 824.494L525.772 824.024C528.022 824.734 526.975 824.164 528.742 826.244L530.064 826.184C532.604 824.244 532.958 824.104 536.118 823.584Z" fill="#2F5F19"/>
<path d="M595.926 824.523C598.011 824.433 598.773 824.233 600.689 825.103C601.474 827.763 600.935 843.663 600.864 847.393C598.824 847.423 598.226 847.553 596.276 846.833C595.57 843.953 595.905 828.643 595.926 824.523Z" fill="#2F5F19"/>
<path d="M597.588 813.417C599.352 812.932 601.181 813.938 601.715 815.688C602.249 817.437 601.295 819.293 599.562 819.877C598.396 820.269 597.11 819.997 596.203 819.167C595.296 818.336 594.911 817.079 595.199 815.883C595.488 814.688 596.402 813.743 597.588 813.417Z" fill="#2F5F19"/>
<path d="M372.429 824.314C376.646 822.904 381.301 823.874 384.6 826.854C387.9 829.844 389.329 834.374 388.339 838.714C387.349 843.054 384.093 846.514 379.825 847.774C373.395 849.674 366.631 846.074 364.615 839.674C362.6 833.284 366.074 826.454 372.429 824.314Z" fill="#2F5F19"/>
<path d="M374.076 828.934C376.655 828.114 379.475 828.774 381.418 830.664C383.36 832.544 384.111 835.344 383.374 837.944C382.636 840.544 380.528 842.534 377.886 843.124C374.046 843.964 370.218 841.644 369.198 837.844C368.178 834.044 370.328 830.124 374.076 828.934Z" fill="white"/>
<path d="M344.445 813.242C350.195 812.819 353.711 813.084 357.455 817.698C357.204 819.483 357.506 818.683 356.303 820.028C352.789 820.746 350.17 818.12 345.183 818.307C343.833 819.013 343.055 819.135 342.544 821.044C340.658 828.853 357.233 828.053 358.557 834.703C360.296 843.443 355.001 846.543 348.338 848.203C344.077 847.913 335.849 847.183 336.381 841.333C342.334 835.023 345.202 850.333 353.036 839.703C353.893 831.873 331.961 831.993 337.064 819.874C338.828 815.686 340.318 814.97 344.445 813.242Z" fill="#2F5F19"/>
<path d="M438.946 824.262C443.89 823.652 448.03 823.312 450.904 828.052C453.616 832.522 453.27 842.142 451.98 847.012L450.604 847.752C448.49 847.272 449.499 847.612 447.547 845.892C441.048 846.082 442.434 850.832 433.945 845.762C426.587 831.792 445.498 835.042 447.498 830.952L446.298 829.422C443.334 827.782 435.901 830.822 433.51 828.252C434.896 826.002 436.517 825.512 438.946 824.262Z" fill="#2F5F19"/>
<path d="M441.608 837.173C444.36 837.003 445.526 836.613 447.525 838.173L447.689 839.543C446.489 841.893 446.099 842.043 443.984 843.773C440.906 843.753 437.162 843.693 437.616 839.563C438.838 837.913 439.66 837.853 441.608 837.173Z" fill="white"/>
<path d="M401.474 824.284C408.301 823.464 409.439 824.074 415.051 827.514C409.069 833.314 409.488 827.114 401.852 829.304C396.085 833.464 398.619 848.254 410.535 841.514C410.758 841.424 411.638 841.444 411.928 841.434C413.485 842.794 413.015 841.984 413.513 843.874C411.451 847.854 407.109 848.974 403.121 847.894C390.336 844.424 390.539 830.264 401.474 824.284Z" fill="#2F5F19"/>
<path d="M460.351 812.342C462.153 812.363 462.792 812.432 464.579 812.698C466.27 814.897 465.422 842.634 465.381 847.414C462.794 847.334 462.465 847.744 460.564 846.604C459.742 839.594 460.321 820.233 460.351 812.342Z" fill="#2F5F19"/>
<path d="M420.481 824.592C422.717 824.452 422.753 824.392 425.06 824.872C426.238 826.852 425.675 843.802 425.641 847.282C423.047 847.302 422.679 847.732 420.751 846.652C420.113 841.892 420.446 829.932 420.481 824.592Z" fill="#2F5F19"/>
<path d="M421.869 813.476C423.513 812.806 425.394 813.541 426.148 815.148C426.901 816.756 426.262 818.671 424.696 819.506C423.608 820.086 422.291 820.018 421.268 819.331C420.246 818.644 419.684 817.448 419.81 816.223C419.936 814.997 420.728 813.941 421.869 813.476Z" fill="#2F5F19"/>
<path d="M739.495 462.472C752.515 430.571 766.353 399.01 780.996 367.82C796.127 335.304 812.23 303.252 829.3 271.706C836.85 257.961 844.41 243.077 854.2 230.782C857.31 226.875 861.39 222.471 866.22 220.859C870.82 219.323 875.49 219.927 879.72 222.245C884.88 225.072 887.38 230.186 887.69 235.927C888.82 257.153 854.05 316.071 842.81 337.606C807.379 405.474 755.336 505.177 748.263 580.628C747.221 591.748 746.585 604.008 749.938 614.821C751.988 621.43 755.786 627.424 762.116 630.612C780.762 640.003 808.039 621.957 822.48 611.078C826.34 608.172 831.66 602.436 836.22 601.025L836.76 601.546C836.65 605.621 826.83 613.06 823.81 615.579L824.67 615.922L831.25 611.125C822.55 623.891 811.57 634.936 798.854 643.7C774.124 660.589 739.812 662.917 721.961 635.277C705.641 610.007 709.51 571.484 715.48 543.276C701.136 561.919 686.962 579.489 669.432 597.267C645.753 621.281 604.4 660.775 570.541 629.196C561.489 620.754 560.364 608.696 560.692 596.814C538.343 623.705 498.51 665.643 465.377 629.048C443.56 604.95 432.621 560.983 425.84 530.009C409.759 567.793 380.013 617.643 343.764 639.587C339.882 641.937 329.751 642.62 329.544 637.327C329.18 628.056 341.707 610.405 346.329 602.824C343.422 605.078 339.653 609.772 336.942 612.632C321.884 628.513 298.373 648.826 274.466 641.374C264.507 638.252 256.194 631.307 251.349 622.063C233.753 588.876 259.326 526.61 270.044 491.873C225.296 523.196 193.733 571.404 162.782 615.402C155.276 626.072 145.478 635.324 131.887 626.998C120.781 620.379 121.503 604.014 124.356 593.005C134.182 555.088 154.528 520.191 163.607 482.037C164.53 478.16 164.925 472.724 160.898 470.506C151.637 470.014 129.615 490.646 123.514 497.114C107.394 514.202 92.9147 533.922 80.4577 553.814C72.9297 565.985 65.7107 578.344 58.8077 590.879C50.9977 605.058 40.3407 631.511 27.9127 640.935C24.7667 643.017 19.6967 644.315 16.0337 643.032C-1.83033 636.773 -2.35233 621.394 2.90067 606.383C9.58167 587.285 16.7547 570.791 24.6267 552.615C34.0527 530.854 43.4047 510.39 53.7187 489.153C55.3127 486.025 58.7967 484.695 60.3197 481.426C62.3897 476.981 64.4717 472.393 66.5817 467.988C68.3157 464.369 69.6367 461.37 73.3057 459.458C80.6407 455.637 90.7307 461.58 93.3687 468.587C96.3717 476.56 91.9327 485.765 88.8857 493.041C85.8417 499.96 82.3437 507.163 79.0377 514.112C98.6447 489.943 120.038 464.801 147.363 450.289C191.209 427.002 209.638 461.804 195.776 500.701C190.357 515.907 185.008 533.901 179.381 549.292C197.372 527.051 215.49 505.143 236.899 485.537C251.43 472.545 284.873 442.678 303.676 464.715C320.363 484.272 298.947 519.985 293.065 540.322C288.378 556.2 282.937 573.836 281.339 590.224C276.404 640.82 316.975 612.541 335.849 594.388C343.001 587.509 352.614 578.838 358.03 570.608C365.908 558.636 371.329 543.289 376.65 529.988C392.471 486.99 390.627 445.373 366.599 405.901C358.784 393.064 348.875 380.872 339.718 368.768C329.688 355.67 320.111 342.232 311.004 328.476C307.974 323.966 300.058 314.065 305.585 309.569C309.549 309.411 314.181 313.885 317.018 316.45C342.265 339.54 369.453 361.456 402.21 372.625C458.628 391.863 506.719 341.67 547.057 310.102C548.756 308.773 549.728 309.131 551.469 309.686C555.985 315.838 540.356 334.078 536.244 339.979C509.489 378.373 477.318 413.447 471.282 461.922C467.089 494.322 470.135 527.594 477.415 559.486C480.786 573.508 489.51 609.813 506.782 611.315C524.115 612.823 551.821 584.813 563.302 572.379C568.608 563.474 571.9 553.294 576.841 544.063C590.929 516.724 610.133 494.368 633.186 474.355C658.512 452.368 713.354 429.403 739.495 462.472Z" fill="#2F5F19"/>
<path d="M812.359 624.172C816.179 621.072 819.599 618.162 823.809 615.58L824.669 615.923C821.199 619.326 816.639 621.948 812.359 624.172Z" fill="#557F3A"/>
<path d="M704.732 474.024C719.947 472.628 726.387 477.579 726.662 492.788C698.871 530.042 658.697 575.608 620.579 601.903C616.323 604.502 611.559 607.528 606.543 606.496C593.118 597.367 625.376 543.021 632.385 532.106C648.02 507.757 675.974 480.433 704.732 474.024Z" fill="white"/>
<path d="M447.337 402.499C453.267 402.327 457.332 407.055 457.272 413.407C457.231 417.867 455.476 421.964 452.758 425.924C450.021 429.911 446.484 433.517 443.053 437.103C438.258 441.835 433.937 446.194 429.443 451.026C426.88 448.386 423.457 445.107 420.03 441.646C415.323 436.89 410.393 431.587 406.709 426.323C402.95 420.953 400.867 416.148 401.055 412.295C401.143 410.473 401.74 408.807 403.036 407.263C404.318 405.736 406.389 404.21 409.613 402.852C414.094 402.382 416.971 403.073 419.33 404.477C421.91 406.012 424.179 408.565 427.169 412.46L429.584 415.605L431.954 412.427C436.255 406.659 440.882 402.686 447.337 402.499Z" fill="white" stroke="#FF6A39" stroke-width="6"/>
<path d="M860.8 279.152L861.42 280.034L826.17 349.701C815.91 369.783 804.679 390.971 795.191 411.338L794.633 411.361C797.443 405.595 799.348 400.528 801.763 395.379C811.42 375.196 821.31 355.129 831.44 335.18C836.93 324.322 842.55 313.535 848.31 302.82C852.01 295.957 857.07 287.201 860.28 280.286L860.8 279.152Z" fill="#C5D6C0"/>
<path d="M47.9883 512.753C51.1873 505.533 65.6113 473.107 69.9943 468.387L70.3033 469.091C65.5433 479.798 59.3333 490.643 54.4003 501.376C53.3783 503.6 49.4163 511.143 48.8713 513.024L47.9883 512.753Z" fill="#C5D6C0"/>
<path d="M47.9868 512.754L48.8698 513.025C47.9028 515.565 46.1788 520.542 44.2428 522.275L43.8398 521.586L45.3338 520.972L44.8658 521.633L44.0058 520.906C45.1628 517.897 46.4738 515.572 47.9868 512.754Z" fill="#557F3A"/>
<path d="M860.797 279.152C862.017 276.723 863.097 273.908 865.117 272.236L865.287 272.343L864.817 273.901L865.237 272.282L864.247 273.211L865.097 273.367C863.857 276.222 863.237 277.472 861.417 280.034L860.797 279.152Z" fill="#557F3A"/>
<path d="M289.352 366.993C252.197 332.324 224.935 299.575 212.359 248.797C203.401 212.625 207.209 174.377 226.868 142.338C243.419 115.026 270.303 95.5599 301.416 88.3599C333.312 81.0639 366.798 86.6739 394.574 103.968C423.155 121.866 438.911 148.09 446.324 180.416C435.501 156.322 423.44 139.455 401.855 123.674L400.886 124.858C410.818 132.374 422.398 144.078 427.481 155.628C364.001 77.6989 256.971 111.997 245.299 210.603C242.903 230.847 247.043 249.443 252.562 268.901C241.289 252.308 238.003 215.003 241.801 194.993C244.23 181.993 248.951 169.528 255.742 158.18L254.423 157.747C216.129 221.187 246.217 288.267 286.755 341.468L285.71 342.839C285.051 341.986 270.291 324.298 270.562 324.495C271.052 328.506 269.21 330.127 267.002 334.296C264.551 331.06 258.291 321.673 255.399 320.842C254.159 319.641 252.049 316.257 250.995 314.677L250.155 316.004C262.648 334.638 274.099 350.005 290.203 365.945L289.352 366.993Z" fill="#2F5F19"/>
<path d="M250.152 316.003C242.427 305.706 229.009 280.13 226.414 268.072C235.565 288.095 238.663 295.633 250.992 314.676L250.152 316.003Z" fill="#C5D6C0"/>
<path d="M380.613 113.289L381.456 112.24C389.082 115.535 395.084 118.748 401.853 123.673L400.884 124.857C393.555 119.725 388.722 117.105 380.613 113.289Z" fill="#C5D6C0"/>
<path d="M254.422 157.747C257.164 153.453 265.22 142.365 269.21 140.047C266.885 143.218 257.801 155.781 255.741 158.18L254.422 157.747Z" fill="#C5D6C0"/>
<path d="M380.613 113.29C374.608 110.73 368.408 109.029 362.141 106.397L362.391 106.653L363.152 105.717L362.876 106.915L363.06 107.011L363.972 105.897L364.495 106.025L364.019 107.487L364.292 107.617L365.431 106.274L364.825 107.869L365.094 107.994L366.269 106.516C369.672 107.517 378.589 110.609 381.456 112.241L380.613 113.29Z" fill="#648B3B"/>
<path d="M649.482 0C655.923 0.047 661.24 4.88 664.958 9.735C677.608 26.251 683.302 47.396 680.84 67.884C681.933 66.979 682.464 66.572 683.653 65.803C686.025 65.672 685.011 65.345 686.84 66.682C687.682 69.112 687.355 68.462 685.859 71.641L686.321 71.854C700.531 61.495 722.676 56.785 740.143 59.216C745.984 60.029 753.178 62.077 751.417 69.918C750.766 72.06 748.289 75.419 746.421 76.921C736.623 84.799 726.711 92.164 717.265 100.565C714.739 102.812 711.714 103.188 708.663 103.642C704.492 104.262 701.837 103.107 697.918 102.346C698.403 107.683 699.395 108.923 697.461 114.748C696.171 116.809 694.089 119.237 692.526 121.179C694.47 126.13 695.243 130.409 690.054 133.652C685.18 134.586 683.687 131.718 681.801 127.969C664.327 121.852 664.108 110.797 669.56 95.133C668.529 95.815 667.629 96.494 666.638 97.233L665.298 96.93C664.613 95.331 665.061 94.863 665.392 92.808C664.33 92.914 657.234 99.218 656.224 99.777C645.247 105.854 637.042 105.923 629.559 95.693C628.649 94.447 622.956 96.338 619.867 89.888C619.998 83.539 626.947 82.175 631.925 81.359C634.768 73.283 636.192 70.408 645.024 68.721C633.303 56.32 635.214 40.767 637.13 24.998C638.237 15.883 641.132 4.957 649.482 0Z" fill="#FF6A39"/>
<path d="M466.931 168.816C478.57 153.947 505.978 143.691 524.035 141.192C571.344 134.644 619.529 169.79 626.327 217.134C630.034 228.747 628.202 248.872 625.813 260.612C622.371 277.532 613.835 297.033 603.315 310.809C600.299 314.885 597.423 318.851 594.127 322.719C584.738 335.183 565.182 348.201 552.255 357.133C555.667 352.679 563.834 345.995 568.25 341.036C590.398 316.16 611.398 285.171 612.925 250.874C612.607 248.644 613.284 246.824 612.836 244.116L611.547 243.413C611.118 232.119 609.918 224.707 606.53 214.078C605.537 215.735 605.674 215.767 604.02 216.689C602.238 215.745 602.296 214.806 601.174 212.563L600.26 212.61C599.429 211.327 597.775 207.651 597.029 206.108C587.684 188.966 581.725 184.625 567.389 173.29L567.565 172.5L567.63 171.685C548.359 160.228 524.951 158.03 503.405 163.491C495.997 165.327 488.853 168.096 482.142 171.73C479.592 173.123 467.252 181.683 466.486 181.837C467.927 179.706 468.262 179.521 470.288 177.846L469.147 177.379C459.856 185.186 452.522 192.563 445.752 202.756C442.802 207.199 439.746 212.493 436.465 216.568C443.787 197.079 453.89 184.181 468.78 170.373C467.62 169.994 467.363 169.884 466.281 169.318L466.931 168.816Z" fill="#648B3B"/>
<path d="M466.931 168.816C478.57 153.947 505.978 143.691 524.035 141.192C571.344 134.644 619.529 169.79 626.327 217.134L625.501 216.511C624.462 215.743 615.316 193.003 613.297 189.146C598.991 161.812 558.48 141.445 527.575 145.58C523.256 146.007 518.944 146.331 514.698 147.212L514.112 148.903C498.217 151.287 481.382 160.638 468.78 170.373C467.62 169.994 467.363 169.884 466.281 169.318L466.931 168.816Z" fill="#2F5F19"/>
<path d="M466.931 168.817C468.755 168.017 478.223 161.616 480.887 160.05C492.916 152.974 501.513 150.336 514.698 147.213L514.112 148.904C498.217 151.288 481.382 160.639 468.78 170.374C467.62 169.995 467.363 169.885 466.281 169.319L466.931 168.817Z" fill="white"/>
<path d="M600.145 200.772C599.53 198.948 599.238 198.392 598.394 196.716L598.453 196.279C607.809 206.727 614.87 234.047 613.43 248.199C613.3 249.479 613.497 249.724 612.923 250.875C612.605 248.645 613.282 246.825 612.834 244.117L611.545 243.414C611.116 232.12 609.916 224.708 606.528 214.079C605.535 215.736 605.672 215.768 604.018 216.69C602.236 215.746 602.294 214.807 601.172 212.564L600.258 212.611C599.427 211.328 597.773 207.652 597.027 206.109C598.129 204.672 598.225 204.779 598.37 203.013L598.97 202.796L598.233 199.533C599.045 200.465 599.005 200.33 600.145 200.772Z" fill="#C5D6C0"/>
<path d="M598.37 203.013L598.97 202.796L598.233 199.533C599.045 200.465 599.005 200.33 600.145 200.772C602.788 205.594 604.622 208.933 606.528 214.079C605.535 215.736 605.672 215.768 604.018 216.69C602.236 215.746 602.294 214.807 601.172 212.564L600.258 212.611C599.427 211.328 597.773 207.652 597.027 206.109C598.129 204.672 598.225 204.779 598.37 203.013Z" fill="#557F3A"/>
<path d="M597.031 206.11C587.686 188.968 581.727 184.627 567.391 173.292L567.567 172.502C580.311 181.158 592.466 188.058 598.374 203.014C598.229 204.78 598.133 204.673 597.031 206.11Z" fill="#2F5F19"/>
<path d="M594.127 322.721C593.44 322.533 593.269 322.35 592.637 321.979C593.043 319.795 605.39 300.478 607.589 296.715C606.683 301.474 604.647 304.818 603.485 310.018L603.315 310.811C600.299 314.887 597.423 318.853 594.127 322.721Z" fill="#2F5F19"/>
<path d="M469.148 177.38C475.006 172.488 480.199 168.46 487.379 165.57L488.021 165.834C483.649 169.379 475.713 173.751 470.289 177.847L469.148 177.38Z" fill="#ABC19A"/>
<path d="M527.576 145.582L531.192 145.893L531.176 146.309C525.882 147.614 519.845 147.67 514.113 148.905L514.699 147.214C518.945 146.333 523.257 146.009 527.576 145.582Z" fill="#ABC19A"/>
<path d="M427.29 290.601C446.32 289.55 462.644 304.024 463.881 323.042C465.118 342.061 450.806 358.527 431.8 359.951C412.529 361.394 395.783 346.838 394.528 327.553C393.274 308.269 407.994 291.666 427.29 290.601Z" fill="#2F5F19"/>
<path d="M255.398 320.842C258.29 321.673 264.55 331.06 267.001 334.296C269.209 330.127 271.051 328.506 270.561 324.495C270.29 324.298 285.05 341.986 285.709 342.839L286.754 341.468L293.045 349.418C295.171 351.515 319.06 377.625 319.718 378.964L319.558 378.545C317.947 378.301 316.334 376.63 314.856 375.464C316.425 379.494 337.442 395.364 338.972 398.521C337.396 398.179 329.462 392.56 327.674 391.316C302.545 373.828 272.562 346.498 255.398 320.842Z" fill="#648B3B"/>
<path d="M285.707 342.838L286.752 341.467L293.043 349.417C290.481 349.024 287.608 344.992 285.707 342.838Z" fill="#1E400C"/>
<path d="M600.258 212.611L601.172 212.564C602.294 214.807 602.236 215.746 604.018 216.69C605.672 215.768 605.535 215.736 606.528 214.079C609.916 224.708 611.116 232.12 611.545 243.414C610.346 261.204 607.589 272.144 599.436 288.484L597.699 288.64C608.429 261.167 609.382 240.215 600.258 212.611Z" fill="#2F5F19"/>
<path d="M640.761 326.035C648.454 329.946 635.75 339.325 632.174 342.615C625.354 338.993 637.365 329.524 640.761 326.035Z" fill="#FF6A39"/>
<path d="M665.198 265.789C668.052 266.323 666.996 265.641 668.751 267.412C670.011 272.372 667.889 281.399 665.502 285.693C663.746 285.524 663.843 285.604 662.406 284.605C660.985 281.279 664.222 270.085 665.198 265.789Z" fill="#FF6A39"/>
<path d="M663.96 231.605C664.152 231.64 665.254 231.756 665.458 231.878C670.065 234.621 670.548 248.44 668.663 252.008C667.68 251.863 667.116 251.648 666.163 251.366C664.235 249.035 662.476 234.534 663.96 231.605Z" fill="#FF6A39"/>
<path d="M657.516 298.406L659.534 299.463C661.901 304.106 655.777 313.183 652.493 316.314C651.439 315.888 649.747 314.866 649.878 313.635C650.371 308.977 654.784 302.023 657.516 298.406Z" fill="#FF6A39"/>
<path d="M618.28 348.881C620.361 350.323 620.146 350.314 620.501 352.009C618.964 356.376 612.103 359.953 608.067 362.188C606.23 360.574 606.759 361.528 606.164 359.392C607.349 355.675 614.785 351.28 618.28 348.881Z" fill="#FF6A39"/>
<path d="M653.474 199.818L655.517 200.424C657.408 202.173 659.888 206.57 660.642 208.972C661.987 213.256 663.281 213.997 661.523 217.943L660.087 217.737C658.067 216.571 655.736 211.396 654.938 209.161C653.342 204.687 651.809 203.905 653.474 199.818Z" fill="#FF6A39"/>
<path d="M593.112 366.012C595.312 366.947 595.703 367.239 595.572 369.463C593.017 372.884 586.899 374.955 582.896 376.668C580.547 375.691 581.315 376.476 580.203 374.584C581.456 371.086 589.424 367.878 593.112 366.012Z" fill="#FF6A39"/>
<path d="M634.524 144.713C635.645 145.077 637.124 145.304 637.375 146.56C638.203 150.703 640.337 158.99 638.67 162.646C637.034 162.364 637.513 162.496 636.021 161.832C633.33 158.117 632.49 148.774 634.524 144.713Z" fill="#FF6A39"/>
<path d="M641.374 172.877C645.007 174.628 647.041 181.711 648.596 185.314C649.527 187.471 648.944 187.953 647.945 189.798C643.549 188.513 641.229 181.259 640.116 177.132C639.544 175.013 640.232 174.562 641.374 172.877Z" fill="#FF6A39"/>
<path d="M641.811 117.146C642.482 117.492 643.818 118.353 643.811 119.134C643.775 123.108 640.54 131.434 638.203 134.352C636.781 133.439 636.865 133.515 635.909 132.121C635.632 126.822 638.516 121.138 641.811 117.146Z" fill="#FF6A39"/>
<path d="M565.696 378.355L567.672 378.438C569.189 379.926 568.762 379.056 569.059 381.107C567.105 384.077 560.779 385.088 557.193 386.02L556.131 386.108C554.183 385.199 554.915 385.864 553.797 384.106L554.256 382.907C556.836 380.923 562.335 379.46 565.696 378.355Z" fill="#FF6A39"/>
<path d="M539.298 384.82C541.438 385.39 540.658 384.785 541.762 386.634C541.113 391.048 533.284 389.822 529.612 389.787C527.338 389.414 527.111 388.901 526.781 386.885L527.639 385.744C530.737 384.519 535.755 384.846 539.298 384.82Z" fill="#FF6A39"/>
<path d="M599.438 288.484C598.344 290.64 592.875 301.704 591.203 302.515C592.23 298.287 595.551 292.663 597.701 288.64L599.438 288.484Z" fill="#648B3B"/>
<path d="M290.203 365.943C291.964 367.658 296.06 371.473 297.421 373.181L297.43 374.012L296.605 373.377L297.938 373.868L298.045 374.501L297.53 373.513C297.721 373.837 297.913 374.162 298.104 374.486L297.484 373.51L296.666 373.621C293.997 371.354 291.871 369.414 289.352 366.991L290.203 365.943Z" fill="#557F3A"/>
</svg>
