<svg width="228" height="65" viewBox="0 0 228 65" fill="none" xmlns="http://www.w3.org/2000/svg">
<path d="M72.7504 45.2134C74.0313 42.0947 75.3926 39.0092 76.8332 35.96C78.3217 32.7811 79.9059 29.6476 81.5853 26.5636C82.328 25.2198 83.0718 23.7647 84.0349 22.5627C84.3408 22.1808 84.7422 21.7502 85.2174 21.5926C85.6699 21.4425 86.1294 21.5015 86.5455 21.7281C87.0531 22.0045 87.2991 22.5045 87.3296 23.0657C87.4407 25.1408 84.0201 30.9008 82.9143 33.0062C79.4287 39.6411 74.3088 49.3884 73.613 56.7647C73.5104 57.8518 73.4479 59.0504 73.7777 60.1075C73.9794 60.7536 74.3531 61.3396 74.9758 61.6513C76.8102 62.5693 79.4936 60.8051 80.9143 59.7416C81.2941 59.4575 81.8174 58.8967 82.266 58.7588L82.3192 58.8097C82.3083 59.2081 81.3423 59.9353 81.0452 60.1816L81.1298 60.2151L81.7771 59.7462C80.9212 60.9942 79.841 62.074 78.59 62.9308C76.1571 64.5819 72.7816 64.8095 71.0254 62.1073C69.4199 59.6369 69.8005 55.8707 70.3878 53.113C68.9767 54.9356 67.5823 56.6533 65.8577 58.3914C63.5282 60.739 59.4599 64.6001 56.1289 61.5128C55.2384 60.6875 55.1277 59.5087 55.16 58.3471C52.9613 60.976 49.0426 65.076 45.7831 61.4984C43.6367 59.1425 42.5606 54.8441 41.8935 51.816C40.3114 55.5099 37.3851 60.3834 33.819 62.5287C33.437 62.7584 32.4404 62.8252 32.42 62.3077C32.3842 61.4014 33.6166 59.6758 34.0713 58.9346C33.7853 59.155 33.4145 59.6139 33.1478 59.8935C31.6664 61.4461 29.3535 63.4319 27.0015 62.7034C26.0218 62.3982 25.2039 61.7192 24.7273 60.8155C22.9962 57.571 25.5121 51.4837 26.5665 48.0877C22.1642 51.15 19.0591 55.8629 16.0142 60.1643C15.2758 61.2074 14.3119 62.1119 12.9748 61.2979C11.8822 60.6509 11.9532 59.051 12.2339 57.9747C13.2006 54.2678 15.2022 50.8562 16.0954 47.1261C16.1862 46.7471 16.225 46.2157 15.8289 45.9988C14.9178 45.9507 12.7513 47.9678 12.1511 48.6001C10.5652 50.2707 9.14081 52.1986 7.9153 54.1433C7.17471 55.3331 6.46452 56.5414 5.78541 57.7668C5.01707 59.153 3.96865 61.7391 2.74601 62.6605C2.43651 62.864 1.93773 62.9909 1.57737 62.8655C-0.180065 62.2536 -0.231419 60.7501 0.285364 59.2826C0.94263 57.4155 1.6483 55.803 2.42273 54.026C3.35005 51.8986 4.27009 49.898 5.28476 47.8218C5.44158 47.516 5.78433 47.386 5.93416 47.0664C6.1378 46.6319 6.34262 46.1833 6.5502 45.7527C6.72079 45.3989 6.85075 45.1057 7.2117 44.9188C7.93331 44.5452 8.92595 45.1262 9.18547 45.8112C9.4809 46.5907 9.0442 47.4906 8.74444 48.2019C8.44497 48.8783 8.10085 49.5825 7.77561 50.2619C9.70452 47.8991 11.8091 45.4411 14.4973 44.0224C18.8108 41.7458 20.6238 45.1481 19.2601 48.9508C18.727 50.4374 18.2008 52.1965 17.6472 53.7012C19.4171 51.5268 21.1995 49.3851 23.3057 47.4683C24.7353 46.1982 28.0253 43.2783 29.8752 45.4327C31.5168 47.3446 29.4099 50.836 28.8313 52.8243C28.3702 54.3765 27.8349 56.1007 27.6777 57.7028C27.1922 62.6492 31.1835 59.8846 33.0403 58.1099C33.7439 57.4374 34.6896 56.5897 35.2224 55.7851C35.9974 54.6147 36.5308 53.1143 37.0542 51.814C38.6107 47.6104 38.4293 43.5418 36.0654 39.6829C35.2966 38.4279 34.3218 37.236 33.4209 36.0526C32.4342 34.7721 31.492 33.4584 30.5961 32.1136C30.298 31.6727 29.5192 30.7047 30.063 30.2652C30.4529 30.2497 30.9086 30.6871 31.1877 30.9379C33.6715 33.1952 36.3462 35.3378 39.5688 36.4297C45.1191 38.3105 49.8502 33.4035 53.8186 30.3173C53.9858 30.1874 54.0814 30.2224 54.2527 30.2766C54.6969 30.8781 53.1594 32.6612 52.7548 33.2381C50.1227 36.9917 46.9578 40.4206 46.364 45.1596C45.9515 48.3272 46.2511 51.5799 46.9673 54.6978C47.299 56.0686 48.1572 59.6179 49.8564 59.7647C51.5616 59.9122 54.2873 57.1738 55.4168 55.9582C55.9388 55.0877 56.2626 54.0924 56.7487 53.19C58.1347 50.5172 60.0239 48.3317 62.2919 46.3751C64.7834 44.2256 70.1787 41.9805 72.7504 45.2134Z" fill="#2F5F19"/>
<path d="M79.9219 61.0206C80.2977 60.7176 80.6341 60.4331 81.0483 60.1807L81.1329 60.2142C80.7915 60.5469 80.3429 60.8032 79.9219 61.0206Z" fill="#557F3A"/>
<path d="M69.3295 46.3433C70.8263 46.2068 71.4599 46.6909 71.4869 48.1777C68.7529 51.8198 64.8006 56.2745 61.0506 58.8451C60.6319 59.0992 60.1632 59.395 59.6698 59.2942C58.349 58.4017 61.5225 53.0887 62.2121 52.0216C63.7502 49.6411 66.5003 46.9699 69.3295 46.3433Z" fill="white"/>
<path d="M43.9863 38.5566C45.1234 38.5239 45.791 39.4618 45.7822 40.4229C45.7762 41.0734 45.5164 41.628 45.1973 42.0898C44.8825 42.5453 44.4816 42.9503 44.1592 43.2852L44.1543 43.29L44.1484 43.2949C43.6035 43.8293 43.1289 44.3078 42.6191 44.8633L42.2422 45.2734L41.875 44.8555C41.6476 44.5968 41.2487 44.2272 40.7588 43.7354C40.2895 43.2642 39.7652 42.7067 39.3623 42.1348C38.972 41.5807 38.6301 40.9237 38.6621 40.2686C38.679 39.9234 38.7991 39.5925 39.043 39.3037C39.281 39.022 39.6179 38.8019 40.0371 38.6328L40.0996 38.6084L40.166 38.6006C40.7578 38.5313 41.2367 38.6099 41.6602 38.8604C41.8873 38.9947 42.0816 39.1725 42.2627 39.3691C42.6884 38.9334 43.2401 38.5782 43.9863 38.5566Z" fill="white" stroke="#FF6A39"/>
<path d="M84.6851 27.29L84.7461 27.3763L81.2782 34.1871C80.2689 36.1504 79.164 38.2218 78.2306 40.2129L78.1757 40.2152C78.4521 39.6515 78.6395 39.1561 78.8771 38.6527C79.8271 36.6796 80.8001 34.7178 81.7967 32.7675C82.3368 31.706 82.8897 30.6514 83.4563 29.6039C83.8203 28.9329 84.3181 28.0769 84.6339 27.4009L84.6851 27.29Z" fill="#C5D6C0"/>
<path d="M4.72266 50.1274C5.03737 49.4215 6.45638 46.2515 6.88757 45.79L6.91797 45.8589C6.44969 46.9056 5.83876 47.9659 5.35346 49.0151C5.25292 49.2326 4.86314 49.97 4.80952 50.1539L4.72266 50.1274Z" fill="#C5D6C0"/>
<path d="M4.72048 50.1289L4.80734 50.1554C4.71221 50.4037 4.54261 50.8903 4.35215 51.0597L4.3125 50.9924L4.45948 50.9323L4.41344 50.9969L4.32883 50.9259C4.44265 50.6317 4.57163 50.4044 4.72048 50.1289Z" fill="#557F3A"/>
<path d="M84.6855 27.2894C84.8056 27.0519 84.9118 26.7767 85.1105 26.6133L85.1273 26.6237L85.081 26.7761L85.1223 26.6178L85.0249 26.7086L85.1086 26.7238C84.9866 27.003 84.9256 27.1252 84.7465 27.3756L84.6855 27.2894Z" fill="#557F3A"/>
<path d="M28.4673 35.8772C24.8121 32.4878 22.1301 29.2862 20.8929 24.322C20.0116 20.7857 20.3862 17.0465 22.3202 13.9142C23.9485 11.2441 26.5933 9.3411 29.6542 8.63721C32.792 7.92393 36.0863 8.47238 38.8189 10.1631C41.6307 11.9128 43.1807 14.4766 43.91 17.6369C42.8452 15.2814 41.6587 13.6324 39.5352 12.0896L39.4399 12.2054C40.417 12.9401 41.5562 14.0844 42.0562 15.2135C35.8112 7.59496 25.2817 10.948 24.1335 20.588C23.8977 22.5671 24.305 24.3851 24.848 26.2874C23.739 24.6652 23.4157 21.0182 23.7893 19.062C24.0283 17.791 24.4927 16.5724 25.1608 15.463L25.0311 15.4207C21.2638 21.6228 24.2238 28.1807 28.2118 33.3818L28.109 33.5158C28.0442 33.4324 26.5921 31.7032 26.6188 31.7224C26.667 32.1146 26.4858 32.273 26.2686 32.6806C26.0274 32.3642 25.4116 31.4465 25.1271 31.3653C25.0051 31.2479 24.7975 30.9171 24.6938 30.7626L24.6112 30.8923C25.8402 32.714 26.9668 34.2164 28.551 35.7747L28.4673 35.8772Z" fill="#2F5F19"/>
<path d="M24.6087 30.8919C23.8488 29.8853 22.5287 27.3849 22.2734 26.2061C23.1737 28.1636 23.4785 28.9005 24.6914 30.7622L24.6087 30.8919Z" fill="#C5D6C0"/>
<path d="M37.4453 11.0752L37.5282 10.9727C38.2785 11.2948 38.8689 11.6089 39.5349 12.0904L39.4395 12.2061C38.7185 11.7044 38.2431 11.4483 37.4453 11.0752Z" fill="#C5D6C0"/>
<path d="M25.0312 15.4238C25.301 15.004 26.0935 13.92 26.4861 13.6934C26.2573 14.0034 25.3637 15.2316 25.161 15.4661L25.0312 15.4238Z" fill="#C5D6C0"/>
<path d="M37.4462 11.0773C36.8554 10.827 36.2454 10.6607 35.6289 10.4034L35.6535 10.4284L35.7284 10.3369L35.7012 10.454L35.7193 10.4634L35.809 10.3545L35.8605 10.367L35.8137 10.51L35.8405 10.5227L35.9526 10.3914L35.893 10.5473L35.9194 10.5595L36.035 10.415C36.3698 10.5129 37.247 10.8152 37.5291 10.9747L37.4462 11.0773Z" fill="#648B3B"/>
<path d="M63.8959 0C64.5296 0.00459485 65.0526 0.477083 65.4184 0.951721C66.6629 2.56637 67.2231 4.63357 66.9809 6.63653C67.0884 6.54806 67.1406 6.50827 67.2576 6.43309C67.4909 6.42028 67.3912 6.38831 67.5711 6.51902C67.654 6.75659 67.6218 6.69304 67.4746 7.00383L67.5201 7.02465C68.918 6.01193 71.0966 5.55146 72.815 5.78912C73.3896 5.86861 74.0974 6.06882 73.9241 6.83538C73.8601 7.04479 73.6164 7.37318 73.4326 7.52002C72.4687 8.29019 71.4936 9.01022 70.5643 9.83152C70.3158 10.0512 70.0182 10.088 69.718 10.1323C69.3077 10.193 69.0465 10.08 68.661 10.0056C68.7087 10.5274 68.8063 10.6486 68.616 11.2181C68.4891 11.4196 68.2843 11.6569 68.1305 11.8468C68.3218 12.3308 68.3978 12.7492 67.8873 13.0662C67.4078 13.1575 67.2609 12.8771 67.0754 12.5106C65.3563 11.9126 65.3348 10.8318 65.8711 9.30047C65.7697 9.36715 65.6812 9.43353 65.5837 9.50578L65.4519 9.47615C65.3845 9.31983 65.4285 9.27408 65.4611 9.07317C65.3566 9.08354 64.6585 9.69983 64.5592 9.75448C63.4793 10.3486 62.6721 10.3553 61.9359 9.35522C61.8464 9.23341 61.2863 9.41828 60.9824 8.78771C60.9953 8.16701 61.6789 8.03366 62.1687 7.95389C62.4484 7.16435 62.5884 6.88329 63.4573 6.71836C62.3042 5.506 62.4922 3.9855 62.6807 2.44388C62.7896 1.55277 63.0744 0.48461 63.8959 0Z" fill="#FF6A39"/>
<path d="M45.9347 16.504C47.0797 15.0504 49.7761 14.0477 51.5525 13.8034C56.2067 13.1633 60.9471 16.5992 61.6158 21.2277C61.9805 22.363 61.8003 24.3305 61.5653 25.4783C61.2267 27.1324 60.3869 29.0389 59.3519 30.3857C59.0552 30.7841 58.7723 31.1719 58.448 31.55C57.5244 32.7685 55.6005 34.0412 54.3287 34.9144C54.6644 34.479 55.4679 33.8255 55.9023 33.3407C58.0812 30.9088 60.1471 27.8792 60.2974 24.5262C60.2661 24.3082 60.3327 24.1303 60.2886 23.8656L60.1618 23.7968C60.1196 22.6927 60.0015 21.9681 59.6682 20.929C59.5705 21.091 59.584 21.0941 59.4213 21.1842C59.246 21.0919 59.2517 21.0001 59.1413 20.7809L59.0514 20.7854C58.9697 20.66 58.8069 20.3006 58.7335 20.1498C57.8142 18.4739 57.228 18.0496 55.8176 16.9414L55.8349 16.8642L55.8413 16.7845C53.9455 15.6644 51.6426 15.4496 49.523 15.9834C48.7942 16.1629 48.0914 16.4336 47.4311 16.7889C47.1803 16.9251 45.9663 17.7619 45.8909 17.777C46.0327 17.5687 46.0656 17.5506 46.265 17.3868L46.1527 17.3412C45.2387 18.1044 44.5172 18.8256 43.8511 19.8221C43.5609 20.2565 43.2603 20.774 42.9375 21.1724C43.6578 19.2671 44.6517 18.0061 46.1166 16.6562C46.0025 16.6192 45.9772 16.6084 45.8708 16.5531L45.9347 16.504Z" fill="#648B3B"/>
<path d="M45.935 16.504C47.0801 15.0504 49.7764 14.0477 51.5528 13.8034C56.207 13.1633 60.9474 16.5992 61.6162 21.2277L61.5349 21.1668C61.4327 21.0917 60.5329 18.8686 60.3343 18.4915C58.9269 15.8193 54.9415 13.8282 51.9011 14.2324C51.4762 14.2741 51.052 14.3058 50.6343 14.392L50.5766 14.5573C49.0129 14.7903 47.3567 15.7045 46.1169 16.6562C46.0028 16.6192 45.9775 16.6084 45.8711 16.5531L45.935 16.504Z" fill="#2F5F19"/>
<path d="M45.935 16.5046C46.1145 16.4264 47.0459 15.8007 47.308 15.6476C48.4914 14.9558 49.3372 14.6979 50.6343 14.3926L50.5766 14.5579C49.0129 14.791 47.3567 15.7051 46.1169 16.6569C46.0028 16.6198 45.9775 16.6091 45.8711 16.5537L45.935 16.5046Z" fill="white"/>
<path d="M59.0411 19.6297C58.9806 19.4514 58.9519 19.397 58.8689 19.2332L58.8747 19.1904C59.7951 20.2119 60.4897 22.8827 60.3481 24.2663C60.3353 24.3914 60.3547 24.4154 60.2982 24.5279C60.2669 24.3099 60.3335 24.132 60.2894 23.8672L60.1626 23.7985C60.1204 22.6943 60.0024 21.9697 59.6691 20.9306C59.5714 21.0926 59.5849 21.0957 59.4221 21.1859C59.2468 21.0936 59.2525 21.0018 59.1421 20.7825L59.0522 20.7871C58.9705 20.6617 58.8078 20.3023 58.7344 20.1514C58.8428 20.011 58.8522 20.0214 58.8665 19.8488L58.9255 19.8275L58.853 19.5085C58.9329 19.5997 58.929 19.5865 59.0411 19.6297Z" fill="#C5D6C0"/>
<path d="M58.8665 19.8461L58.9255 19.8249L58.853 19.5059C58.9329 19.597 58.929 19.5838 59.0411 19.627C59.3011 20.0984 59.4816 20.4248 59.6691 20.9279C59.5714 21.0899 59.5849 21.093 59.4221 21.1832C59.2468 21.0909 59.2525 20.9991 59.1421 20.7798L59.0522 20.7844C58.9705 20.659 58.8078 20.2996 58.7344 20.1487C58.8428 20.0083 58.8522 20.0187 58.8665 19.8461Z" fill="#557F3A"/>
<path d="M58.7363 20.1528C57.8169 18.477 57.2307 18.0526 55.8203 16.9444L55.8376 16.8672C57.0914 17.7134 58.2872 18.388 58.8684 19.8501C58.8541 20.0228 58.8447 20.0123 58.7363 20.1528Z" fill="#2F5F19"/>
<path d="M58.4513 31.5522C58.3837 31.5338 58.3669 31.5159 58.3047 31.4796C58.3446 31.2661 59.5593 29.3776 59.7756 29.0098C59.6865 29.475 59.4862 29.8019 59.3719 30.3103L59.3552 30.3878C59.0585 30.7863 58.7755 31.174 58.4513 31.5522Z" fill="#2F5F19"/>
<path d="M46.1544 17.3401C46.7307 16.8619 47.2416 16.4681 47.948 16.1855L48.0111 16.2114C47.581 16.5579 46.8003 16.9853 46.2667 17.3858L46.1544 17.3401Z" fill="#ABC19A"/>
<path d="M51.9026 14.2344L52.2583 14.2648L52.2568 14.3054C51.7359 14.433 51.142 14.4385 50.5781 14.5592L50.6358 14.3939C51.0535 14.3078 51.4777 14.2761 51.9026 14.2344Z" fill="#ABC19A"/>
<path d="M42.0351 28.4096C43.9072 28.3068 45.5132 29.7218 45.6349 31.5811C45.7566 33.4404 44.3486 35.0502 42.4788 35.1894C40.5829 35.3305 38.9355 33.9074 38.812 32.0221C38.6887 30.1368 40.1368 28.5137 42.0351 28.4096Z" fill="#2F5F19"/>
<path d="M25.125 31.3643C25.4095 31.4455 26.0254 32.3632 26.2665 32.6796C26.4837 32.272 26.6649 32.1135 26.6167 31.7214C26.5901 31.7021 28.0421 33.4314 28.1069 33.5147L28.2098 33.3807L28.8287 34.1579C29.0378 34.3629 31.388 36.9155 31.4527 37.0464L31.437 37.0055C31.2785 36.9816 31.1198 36.8182 30.9744 36.7043C31.1287 37.0982 33.1964 38.6497 33.3469 38.9584C33.1918 38.9249 32.4113 38.3756 32.2354 38.254C29.7632 36.5443 26.8136 33.8725 25.125 31.3643Z" fill="#648B3B"/>
<path d="M28.1074 33.5159L28.2102 33.3818L28.8291 34.159C28.5771 34.1206 28.2944 33.7264 28.1074 33.5159Z" fill="#1E400C"/>
<path d="M59.0545 20.7849L59.1444 20.7803C59.2548 20.9996 59.2491 21.0914 59.4244 21.1836C59.5871 21.0935 59.5736 21.0904 59.6713 20.9284C60.0046 21.9675 60.1227 22.6921 60.1649 23.7963C60.0469 25.5355 59.7757 26.605 58.9736 28.2024L58.8027 28.2177C59.8583 25.5318 59.9521 23.4835 59.0545 20.7849Z" fill="#2F5F19"/>
<path d="M63.0396 31.874C63.7965 32.2564 62.5467 33.1733 62.1949 33.4949C61.5239 33.1408 62.7056 32.2151 63.0396 31.874Z" fill="#FF6A39"/>
<path d="M65.4424 25.9814C65.7232 26.0337 65.6193 25.967 65.792 26.1401C65.9159 26.625 65.7072 27.5075 65.4723 27.9273C65.2996 27.9108 65.3091 27.9186 65.1678 27.8209C65.028 27.4958 65.3464 26.4014 65.4424 25.9814Z" fill="#FF6A39"/>
<path d="M65.3182 22.6426C65.3371 22.646 65.4455 22.6573 65.4655 22.6693C65.9188 22.9374 65.9663 24.2884 65.7808 24.6372C65.6841 24.6231 65.6286 24.602 65.5349 24.5745C65.3452 24.3466 65.1722 22.9289 65.3182 22.6426Z" fill="#FF6A39"/>
<path d="M64.6857 29.1719L64.8842 29.2752C65.1171 29.7291 64.5146 30.6165 64.1916 30.9226C64.0879 30.881 63.9214 30.7811 63.9343 30.6607C63.9828 30.2053 64.4169 29.5255 64.6857 29.1719Z" fill="#FF6A39"/>
<path d="M60.8267 34.1074C61.0314 34.2484 61.0103 34.2475 61.0452 34.4132C60.894 34.8402 60.219 35.1899 59.822 35.4084C59.6413 35.2506 59.6933 35.3438 59.6348 35.135C59.7513 34.7716 60.4829 34.342 60.8267 34.1074Z" fill="#FF6A39"/>
<path d="M64.2896 19.5361L64.4906 19.5954C64.6766 19.7664 64.9206 20.1962 64.9948 20.4311C65.1271 20.8499 65.2544 20.9223 65.0814 21.3081L64.9402 21.2879C64.7414 21.174 64.5121 20.668 64.4336 20.4495C64.2766 20.0121 64.1258 19.9357 64.2896 19.5361Z" fill="#FF6A39"/>
<path d="M58.35 35.7832C58.5665 35.8746 58.6049 35.9032 58.5921 36.1206C58.3407 36.455 57.7388 36.6575 57.345 36.825C57.1139 36.7294 57.1895 36.8062 57.0801 36.6212C57.2033 36.2792 57.9872 35.9656 58.35 35.7832Z" fill="#FF6A39"/>
<path d="M62.4237 14.1494C62.5339 14.185 62.6794 14.2072 62.7041 14.33C62.7856 14.735 62.9955 15.5452 62.8315 15.9026C62.6706 15.875 62.7177 15.8879 62.5709 15.823C62.3062 15.4598 62.2236 14.5464 62.4237 14.1494Z" fill="#FF6A39"/>
<path d="M63.0971 16.9014C63.4545 17.0725 63.6546 17.765 63.8076 18.1172C63.8992 18.3281 63.8418 18.3752 63.7435 18.5556C63.3111 18.43 63.0828 17.7208 62.9733 17.3173C62.9171 17.1102 62.9847 17.0661 63.0971 16.9014Z" fill="#FF6A39"/>
<path d="M63.141 11.4551C63.207 11.4889 63.3385 11.5731 63.3378 11.6494C63.3343 12.0379 63.016 12.8519 62.7861 13.1372C62.6462 13.0479 62.6545 13.0554 62.5604 12.9191C62.5332 12.401 62.8169 11.8453 63.141 11.4551Z" fill="#FF6A39"/>
<path d="M55.6511 36.9893L55.8455 36.9974C55.9947 37.1428 55.9527 37.0578 55.9819 37.2583C55.7897 37.5487 55.1673 37.6475 54.8146 37.7386L54.7101 37.7472C54.5184 37.6583 54.5905 37.7234 54.4805 37.5515L54.5256 37.4343C54.7794 37.2403 55.3204 37.0973 55.6511 36.9893Z" fill="#FF6A39"/>
<path d="M53.0575 37.6222C53.268 37.6779 53.1913 37.6188 53.2999 37.7995C53.236 38.2311 52.4658 38.1112 52.1046 38.1078C51.8808 38.0713 51.8585 38.0212 51.826 37.8241L51.9105 37.7125C52.2152 37.5928 52.7089 37.6247 53.0575 37.6222Z" fill="#FF6A39"/>
<path d="M58.9703 28.2031C58.8627 28.4139 58.3246 29.4956 58.1602 29.5748C58.2612 29.1615 58.5879 28.6117 58.7994 28.2184L58.9703 28.2031Z" fill="#648B3B"/>
<path d="M28.5525 35.7764C28.7257 35.944 29.1287 36.317 29.2626 36.484L29.2634 36.5652L29.1823 36.5031L29.3134 36.5511L29.324 36.613L29.2733 36.5164C29.2921 36.5481 29.311 36.5799 29.3298 36.6116L29.2688 36.5161L29.1883 36.527C28.9257 36.3054 28.7166 36.1157 28.4688 35.8788L28.5525 35.7764Z" fill="#557F3A"/>
<path d="M122.502 53.4023C124.054 53.5681 125.836 54.5501 125.525 56.3384C124.426 57.6469 121.818 56.2982 121.165 57.2953C121.739 58.9429 123.321 58.5059 124.414 57.6092C124.909 57.991 124.939 57.8955 125.15 58.3903C124.42 59.6612 122.443 59.9123 121.208 59.1589C120.467 58.6993 119.94 57.9659 119.745 57.1195C119.276 55.0826 120.606 53.8042 122.502 53.4023Z" fill="#2F5F19"/>
<path d="M122.408 54.4805C123.131 54.5483 124.024 54.7568 124.07 55.6207C123.635 56.005 123.65 55.8744 122.9 55.9146C122.141 55.9246 121.778 56.01 121.229 55.5705L121.259 55.2566C121.677 54.7894 121.824 54.7618 122.408 54.4805Z" fill="white"/>
<path d="M112.882 50.5732C113.115 50.58 113.793 50.5655 113.9 50.7194C114.427 51.4739 114.222 53.2036 114.234 54.1254C118.33 51.1496 118.875 57.4858 117.555 59.5277L117.115 59.4725C116.662 58.5859 116.786 57.6792 116.818 56.6872C116.79 55.6423 116.779 54.4694 115.422 54.5373C113.591 55.5117 114.414 58.1866 114.086 59.2113L113.732 59.3871C113.096 59.3243 113.329 59.4599 112.942 59.1058C112.71 57.3075 112.881 52.6292 112.882 50.5732Z" fill="#2F5F19"/>
<path d="M104.953 50.9273C106.095 50.9454 110.857 50.6455 111.414 51.1852C111.457 51.5961 111.51 51.6494 111.345 52.0123C110.632 52.2715 109.641 52.1723 108.848 52.157L108.849 56.5613C108.865 57.2519 109.059 58.9171 108.54 59.3541C107.964 59.3391 107.93 59.4345 107.543 59.1582C107.337 57.4629 107.45 54.0296 107.462 52.1954C106.664 52.1851 105.858 52.3707 105.175 52.064C104.84 51.6122 104.96 51.6288 104.953 50.9273Z" fill="#2F5F19"/>
<path d="M87.3848 50.5797C87.6699 50.5741 88.349 50.5247 88.4946 50.7811C88.949 51.5808 88.7203 53.2459 88.7256 54.1878C92.1193 52.0507 94.9873 55.3105 92.7193 58.7287C90.0722 60.7154 90.1538 58.249 88.1943 59.4269C87.6254 59.3591 87.8302 59.4872 87.4538 59.1808C87.236 58.2013 87.3747 52.0489 87.3848 50.5797Z" fill="#2F5F19"/>
<path d="M89.8649 54.7259C90.8225 54.4195 91.8521 54.9269 92.1855 55.8712C92.5186 56.8156 92.0336 57.8503 91.0926 58.2045C90.4626 58.4431 89.7526 58.32 89.2378 57.888C88.7233 57.456 88.4849 56.7804 88.6151 56.1249C88.7452 55.4669 89.2237 54.9319 89.8649 54.7259Z" fill="white"/>
<path d="M97.4818 57.8369C97.9155 56.6465 98.5077 54.8381 99.1196 53.7883C99.4549 53.5522 99.7595 53.6175 100.186 53.6301L100.282 53.7808C100.116 54.7276 99.438 56.1592 99.0374 57.0985C98.6699 58.0102 97.521 61.3833 96.8836 61.8127C96.4428 61.873 96.2503 61.9308 95.8158 61.8153C95.7304 61.2577 96.4712 59.9265 96.7565 59.3263C96.0079 57.4401 95.1989 55.5313 94.4258 53.6501C94.9345 53.615 95.0058 53.6125 95.5105 53.6702C96.3228 54.2429 97.0353 56.7218 97.4818 57.8369Z" fill="#2F5F19"/>
<path d="M172.092 50.9233C172.381 50.9168 173.192 50.8738 173.297 51.0152C174.199 52.2276 176.554 58.1885 176.839 59.1982C176.524 59.5171 176.709 59.4016 176.242 59.5222C174.678 59.0073 175.596 57.5054 173.708 57.3823L170.905 57.4099C170.655 58.0102 170.39 58.8717 169.91 59.2534C169.382 59.3815 169.319 59.3338 168.791 59.2509L168.693 59.06C168.998 57.8696 171.481 52.3722 172.092 50.9233Z" fill="#2F5F19"/>
<path d="M172.621 52.8262C173.116 53.2413 174.158 55.4816 173.896 56.1296L173.4 56.1824L171.375 56.1271C171.806 55.0497 172.212 53.9169 172.621 52.8262Z" fill="white"/>
<path d="M207.136 53.4111C209.475 53.6372 209.768 54.8201 210.093 56.857C209.106 56.8922 206.308 56.5908 205.7 57.1936L205.733 57.5452C206.827 58.9215 207.677 58.4694 208.969 57.6657L209.487 58.0927C209.715 58.9491 208.359 59.3962 207.662 59.5394C206.953 59.6901 206.213 59.5469 205.611 59.1425C203.235 57.5728 203.821 53.9536 207.136 53.4111Z" fill="#2F5F19"/>
<path d="M206.876 54.4531C207.613 54.5536 208.477 54.7922 208.6 55.6311C208.211 55.9751 208.188 55.8571 207.513 55.8973C206.826 55.8948 206.249 55.9902 205.739 55.5808L205.75 55.2644C206.165 54.7947 206.308 54.7595 206.876 54.4531Z" fill="white"/>
<path d="M189.302 50.5824C191.991 50.5003 189.738 52.6218 190.742 54.0458C193.57 52.4415 194.613 54.2342 194.458 56.894C194.414 57.655 194.559 58.5441 194.348 59.2774C193.843 59.4909 193.718 59.4307 193.33 59.1293C193.02 58.4386 193.17 57.0999 193.186 56.251C193.192 55.2288 192.707 54.4251 191.597 54.4402C190.01 55.4146 191.061 58.2 190.153 59.4407C189.847 59.5085 189.35 59.4131 189.342 59.1242C189.262 56.2837 189.299 53.4255 189.302 50.5824Z" fill="#2F5F19"/>
<path d="M223.944 53.5462C224.898 53.4483 226.404 53.4056 226.955 54.3374L226.871 54.5986C225.94 54.9904 225.193 54.5986 224.058 54.9025L223.963 55.1235C224.443 55.9096 226.91 56.2838 227.361 57.4718C227.745 58.4815 226.228 59.255 225.485 59.5213C225.287 59.5288 225.088 59.5338 224.89 59.5313C224.196 59.5188 223.065 59.2249 222.58 58.7125C222.581 58.2303 222.522 58.4589 222.83 58.0244C223.898 57.6552 224.725 58.8733 225.792 57.9967C225.797 56.869 220.073 55.9774 223.944 53.5462Z" fill="#2F5F19"/>
<path d="M184.65 53.5431C185.744 53.4376 186.863 53.3547 187.674 54.2338C187.733 54.7562 187.792 54.5176 187.443 54.9596C186.509 55.3514 184.8 54.0479 184.165 55.2334C183.43 56.6047 184.346 59.0585 186.243 58.197C186.854 57.8228 186.949 57.7575 187.539 58.1066L187.613 58.4708C186.861 60.1134 183.946 59.8547 182.99 58.0865C182.556 57.2703 182.475 56.3134 182.766 55.4393C183.112 54.382 183.71 54.0052 184.65 53.5431Z" fill="#2F5F19"/>
<path d="M213.301 53.5521C214.214 53.4642 216.323 53.5219 216.478 54.7023C216.199 54.9585 215.978 54.9761 215.593 55.1067C214.939 54.8154 214.341 54.411 213.597 54.6923C211.665 55.4232 212.729 59.2935 214.874 58.1909L215.399 57.8845C215.962 57.8795 215.713 57.8067 216.179 58.0955L216.256 58.4722C215.043 61.1069 209.99 58.7334 211.438 55.4734C211.99 54.2302 212.033 54.1724 213.301 53.5521Z" fill="#2F5F19"/>
<path d="M218.512 51.9882C219.132 51.9576 219.402 51.8383 219.785 52.3474C219.676 53.0285 219.52 53.1666 220.083 53.5585C220.907 53.5811 220.971 53.4957 221.522 53.9955L221.496 54.2316C221.065 54.6108 220.462 54.7163 219.893 54.8745C219.762 55.7134 219.585 57.6398 220.201 58.2451C221.159 58.3355 221.214 58.1823 221.613 59.0287C221.167 59.4481 220.374 59.6314 219.766 59.6415C217.863 58.9282 218.842 55.746 218.356 54.8142L217.586 54.6711C217.27 54.2617 217.392 54.4928 217.416 53.8247C217.924 53.2872 217.956 53.9126 218.482 53.4278L218.512 51.9882Z" fill="#2F5F19"/>
<path d="M200.242 51.9765C200.829 51.9928 201.04 51.9059 201.457 52.1797C201.394 52.7624 201.356 52.8543 201.557 53.4219C201.942 53.7685 202.157 53.5475 202.932 53.6706L203.134 53.9845C203.048 54.7304 202.216 54.5647 201.708 55.1675C201.144 55.838 201.314 57.7318 201.891 58.2441C203.009 58.3672 202.945 58.2341 203.22 59.2186C199.216 61.0244 200.669 56.0716 200.088 54.7982C199.615 54.7581 199.559 54.8108 199.207 54.5245C199.114 54.0975 199.052 54.0624 199.211 53.6731C199.612 53.5977 199.691 53.5625 200.076 53.4119C200.385 52.8229 200.26 52.7491 200.242 51.9765Z" fill="#2F5F19"/>
<path d="M181.383 53.3848C181.786 53.7439 181.653 53.5304 181.794 54.0529C181.596 54.4045 181.658 54.422 181.148 54.5903C178.266 55.5372 180.129 57.2275 179.417 59.076C178.94 59.4879 179.005 59.3472 178.185 59.3724C178.189 58.2622 178.137 54.4346 178.345 53.6133L178.769 53.4953C179.337 53.6736 179.073 53.5304 179.519 54.0529L179.853 54.0378C180.495 53.5505 180.585 53.5154 181.383 53.3848Z" fill="#2F5F19"/>
<path d="M196.501 53.6221C197.028 53.5995 197.221 53.5492 197.705 53.7677C197.903 54.4358 197.767 58.4292 197.749 59.366C197.234 59.3736 197.083 59.4062 196.59 59.2254C196.411 58.5021 196.496 54.6568 196.501 53.6221Z" fill="#2F5F19"/>
<path d="M196.921 50.8314C197.366 50.7095 197.829 50.9622 197.964 51.4018C198.098 51.841 197.857 52.3072 197.419 52.4538C197.125 52.5523 196.8 52.484 196.57 52.2755C196.341 52.0668 196.244 51.7511 196.317 51.4507C196.39 51.1506 196.621 50.9132 196.921 50.8314Z" fill="#2F5F19"/>
<path d="M140.014 53.57C141.08 53.2159 142.256 53.4595 143.09 54.2079C143.924 54.9589 144.285 56.0966 144.035 57.1867C143.785 58.2767 142.962 59.1457 141.883 59.4621C140.258 59.9393 138.549 59.0352 138.039 57.4278C137.53 55.8229 138.408 54.1075 140.014 53.57Z" fill="#2F5F19"/>
<path d="M140.432 54.7295C141.083 54.5236 141.796 54.6894 142.287 55.164C142.778 55.6362 142.968 56.3394 142.781 56.9925C142.595 57.6455 142.062 58.1453 141.394 58.2935C140.424 58.5044 139.457 57.9217 139.199 56.9673C138.941 56.0129 139.484 55.0284 140.432 54.7295Z" fill="white"/>
<path d="M132.943 50.7886C134.396 50.6823 135.285 50.7489 136.231 51.9077C136.168 52.3561 136.244 52.1551 135.94 52.4929C135.052 52.6733 134.39 52.0137 133.13 52.0607C132.788 52.238 132.592 52.2687 132.463 52.7481C131.986 54.7094 136.175 54.5085 136.51 56.1787C136.949 58.3738 135.611 59.1524 133.927 59.5693C132.85 59.4965 130.771 59.3131 130.905 57.8438C132.41 56.259 133.134 60.1042 135.114 57.4344C135.331 55.4679 129.788 55.498 131.078 52.4543C131.523 51.4024 131.9 51.2226 132.943 50.7886Z" fill="#2F5F19"/>
<path d="M156.826 53.5567C158.076 53.4035 159.122 53.3181 159.848 54.5086C160.534 55.6313 160.446 58.0474 160.12 59.2705L159.773 59.4564C159.238 59.3358 159.493 59.4212 159 58.9892C157.357 59.037 157.708 60.2299 155.562 58.9566C153.703 55.4479 158.482 56.2642 158.988 55.2369L158.684 54.8527C157.935 54.4408 156.057 55.2043 155.452 54.5588C155.803 53.9937 156.212 53.8707 156.826 53.5567Z" fill="#2F5F19"/>
<path d="M157.501 56.7997C158.196 56.757 158.491 56.6591 158.996 57.0509L159.038 57.395C158.734 57.9852 158.636 58.0228 158.101 58.4573C157.323 58.4523 156.377 58.4373 156.492 57.4C156.801 56.9856 157.009 56.9705 157.501 56.7997Z" fill="white"/>
<path d="M147.355 53.5612C149.08 53.3552 149.368 53.5084 150.786 54.3724C149.274 55.8291 149.38 54.2719 147.45 54.822C145.993 55.8668 146.633 59.5814 149.645 57.8886C149.701 57.866 149.923 57.871 149.997 57.8685C150.39 58.2101 150.271 58.0066 150.397 58.4813C149.876 59.4809 148.779 59.7622 147.771 59.491C144.54 58.6194 144.591 55.0631 147.355 53.5612Z" fill="#2F5F19"/>
<path d="M162.237 50.5625C162.692 50.5678 162.854 50.5851 163.305 50.6519C163.733 51.2042 163.518 58.1706 163.508 59.3711C162.854 59.351 162.771 59.4539 162.291 59.1676C162.083 57.407 162.229 52.5444 162.237 50.5625Z" fill="#2F5F19"/>
<path d="M152.163 53.6404C152.728 53.6052 152.737 53.5902 153.32 53.7107C153.618 54.208 153.475 58.4651 153.467 59.3391C152.811 59.3442 152.718 59.4522 152.231 59.1809C152.07 57.9854 152.154 54.9816 152.163 53.6404Z" fill="#2F5F19"/>
<path d="M152.511 50.8483C152.927 50.68 153.402 50.8646 153.592 51.2682C153.783 51.6721 153.621 52.153 153.226 52.3627C152.951 52.5084 152.618 52.4913 152.359 52.3188C152.101 52.1462 151.959 51.8459 151.991 51.5382C152.023 51.2303 152.223 50.9651 152.511 50.8483Z" fill="#2F5F19"/>
</svg>
